<svg viewBox="0 0 20 20" xmlns="http://www.w3.org/2000/svg" xmlns:xlink="http://www.w3.org/1999/xlink" width="20.000000" height="20.000000" fill="none" customFrame="#000000">
	<g id="Instagram">
		<g id="Group">
			<g id="Group">
				<path id="Vector" d="M13.75 0L6.25 0C2.79875 0 0 2.79875 0 6.25L0 13.75C0 17.2013 2.79875 20 6.25 20L13.75 20C17.2013 20 20 17.2013 20 13.75L20 6.25C20 2.79875 17.2013 0 13.75 0ZM18.125 13.75C18.125 16.1625 16.1625 18.125 13.75 18.125L6.25 18.125C3.8375 18.125 1.875 16.1625 1.875 13.75L1.875 6.25C1.875 3.8375 3.8375 1.875 6.25 1.875L13.75 1.875C16.1625 1.875 18.125 3.8375 18.125 6.25L18.125 13.75Z" fill="rgb(255,255,255)" fill-rule="nonzero" transform="matrix(-4.37114e-08,-1,1,-4.37114e-08,0,20)" />
			</g>
		</g>
		<g id="Group">
			<g id="Group">
				<path id="Vector" d="M5 0C2.23875 0 0 2.23875 0 5C0 7.76125 2.23875 10 5 10C7.76125 10 10 7.76125 10 5C10 2.23875 7.76125 0 5 0ZM5 8.125C3.2775 8.125 1.875 6.7225 1.875 5C1.875 3.27625 3.2775 1.875 5 1.875C6.7225 1.875 8.125 3.27625 8.125 5C8.125 6.7225 6.7225 8.125 5 8.125Z" fill="rgb(255,255,255)" fill-rule="nonzero" transform="matrix(-4.37114e-08,-1,1,-4.37114e-08,5,15)" />
			</g>
		</g>
		<g id="Group">
			<g id="Group">
				<path id="Vector" d="M0.66625 1.33249C1.03421 1.33249 1.3325 1.03421 1.3325 0.666247C1.3325 0.298289 1.03421 0 0.66625 0C0.29829 0 0 0.298289 0 0.666247C0 1.03421 0.29829 1.33249 0.66625 1.33249Z" fill="rgb(255,255,255)" fill-rule="evenodd" transform="matrix(-4.37114e-08,-1,1,-4.37114e-08,3.95874,5.29126)" />
			</g>
		</g>
	</g>
</svg>
